<svg width="123" height="94" viewBox="0 0 123 94" fill="none" xmlns="http://www.w3.org/2000/svg">
<path d="M8.48892 59.9243C9.48423 58.2655 31.006 39.6913 45.2901 24.0178M45.2901 24.0178C55.9403 12.3316 62.5669 2.2579 53.6617 2.01053C36.9825 1.54722 41.131 16.489 45.2901 24.0178ZM45.2901 24.0178C57.3468 31.7396 78.6804 49.7315 67.561 59.9243C56.4415 70.1172 8.6176 45.746 3.27667 39.0754C-2.06425 32.4048 11.2559 34.3994 8.48892 33.8631C5.72191 33.3269 87.0587 48.9207 122 59.9243L117.818 58.9351C99.5841 54.6224 84.3763 68.3167 79.7961 86.4849C79.0485 89.4502 78.0846 91.434 76.8272 91.7769C71.7308 93.1669 64.6653 87.3369 61.7696 84.2481" stroke="white" stroke-width="4" stroke-linecap="round"/>
</svg>
